<mxfile host="app.diagrams.net" agent="Mozilla/5.0 (Windows NT 10.0; Win64; x64) AppleWebKit/537.36 (KHTML, like Gecko) Chrome/129.0.0.0 Safari/537.36" version="24.7.16">
  <diagram name="Page-1" id="wIRv_dGzPq9Kt3GLaHbn">
    <mxGraphModel dx="1050" dy="565" grid="1" gridSize="10" guides="1" tooltips="1" connect="1" arrows="1" fold="1" page="1" pageScale="1" pageWidth="827" pageHeight="1169" math="0" shadow="0">
      <root>
        <mxCell id="0" />
        <mxCell id="1" parent="0" />
        <mxCell id="aNSN_jQHRGzsoM6pZoVM-1" value="" style="rounded=0;whiteSpace=wrap;html=1;" parent="1" vertex="1">
          <mxGeometry x="120" y="147.9996" width="570.865" height="570.865" as="geometry" />
        </mxCell>
        <mxCell id="_DUAch_HkXOJuvnQZEsZ-1" value="" style="rounded=0;whiteSpace=wrap;html=1;" vertex="1" parent="1">
          <mxGeometry x="180" y="248" width="86.61399999999999" height="110.23599999999999" as="geometry" />
        </mxCell>
        <mxCell id="_DUAch_HkXOJuvnQZEsZ-2" value="" style="rounded=0;whiteSpace=wrap;html=1;" vertex="1" parent="1">
          <mxGeometry x="438" y="253.71" width="181.102" height="102.362" as="geometry" />
        </mxCell>
        <mxCell id="_DUAch_HkXOJuvnQZEsZ-9" value="" style="ellipse;whiteSpace=wrap;html=1;aspect=fixed;" vertex="1" parent="1">
          <mxGeometry x="180" y="550.13" width="39.37" height="39.37" as="geometry" />
        </mxCell>
        <mxCell id="_DUAch_HkXOJuvnQZEsZ-10" value="" style="ellipse;whiteSpace=wrap;html=1;aspect=fixed;" vertex="1" parent="1">
          <mxGeometry x="227.24" y="550.13" width="39.37" height="39.37" as="geometry" />
        </mxCell>
        <mxCell id="_DUAch_HkXOJuvnQZEsZ-11" value="" style="ellipse;whiteSpace=wrap;html=1;aspect=fixed;" vertex="1" parent="1">
          <mxGeometry x="187.87" y="558.01" width="23.622" height="23.62" as="geometry" />
        </mxCell>
        <mxCell id="_DUAch_HkXOJuvnQZEsZ-12" value="" style="ellipse;whiteSpace=wrap;html=1;aspect=fixed;" vertex="1" parent="1">
          <mxGeometry x="235.11" y="558.01" width="23.622" height="23.62" as="geometry" />
        </mxCell>
        <mxCell id="_DUAch_HkXOJuvnQZEsZ-15" value="" style="ellipse;whiteSpace=wrap;html=1;aspect=fixed;" vertex="1" parent="1">
          <mxGeometry x="438" y="540.29" width="59.055" height="59.05" as="geometry" />
        </mxCell>
        <mxCell id="_DUAch_HkXOJuvnQZEsZ-16" value="" style="ellipse;whiteSpace=wrap;html=1;aspect=fixed;" vertex="1" parent="1">
          <mxGeometry x="455.34000000000003" y="558.01" width="23.622" height="23.62" as="geometry" />
        </mxCell>
        <mxCell id="_DUAch_HkXOJuvnQZEsZ-17" value="" style="ellipse;whiteSpace=wrap;html=1;aspect=fixed;" vertex="1" parent="1">
          <mxGeometry x="560.05" y="540.29" width="59.055" height="59.05" as="geometry" />
        </mxCell>
        <mxCell id="_DUAch_HkXOJuvnQZEsZ-18" value="" style="ellipse;whiteSpace=wrap;html=1;aspect=fixed;" vertex="1" parent="1">
          <mxGeometry x="577.77" y="558" width="23.622" height="23.62" as="geometry" />
        </mxCell>
        <mxCell id="_DUAch_HkXOJuvnQZEsZ-19" value="" style="ellipse;whiteSpace=wrap;html=1;aspect=fixed;" vertex="1" parent="1">
          <mxGeometry x="455.34000000000003" y="438.08" width="23.622" height="23.62" as="geometry" />
        </mxCell>
        <mxCell id="_DUAch_HkXOJuvnQZEsZ-20" value="" style="ellipse;whiteSpace=wrap;html=1;aspect=fixed;" vertex="1" parent="1">
          <mxGeometry x="582.9359" y="443.98359999999997" width="11.811" height="11.81" as="geometry" />
        </mxCell>
      </root>
    </mxGraphModel>
  </diagram>
</mxfile>
